<?xml version="1.0" encoding="utf-8"?>
<!-- Generator: Adobe Illustrator 27.5.0, SVG Export Plug-In . SVG Version: 6.00 Build 0)  -->
<svg version="1.1" xmlns="http://www.w3.org/2000/svg" xmlns:xlink="http://www.w3.org/1999/xlink" x="0px" y="0px"
	 viewBox="0 0 3710 3710" style="enable-background:new 0 0 3710 3710;" xml:space="preserve">
<g id="Background">
	<g>
		<g>
			<rect style="fill:#FFFFFF;" width="3710" height="3710"/>
		</g>
	</g>
</g>
<g id="Illustration">
	<g>
		<linearGradient id="SVGID_1_" gradientUnits="userSpaceOnUse" x1="3582.5344" y1="4054.1101" x2="1115.6228" y2="990.3606">
			<stop  offset="0" style="stop-color:#DAE3FE"/>
			<stop  offset="1" style="stop-color:#E9EFFD"/>
		</linearGradient>
		<path style="fill:url(#SVGID_1_);" d="M2903.872,2845.878c-56.664,59.653-110.279,98.123-152.639,128.517
			c-497.935,357.274-1087.124,253.13-1212.343,227.697c-184.91-37.556-542.336-110.151-800.749-414.039
			c-390.957-459.757-330.079-1184.092-26.827-1662.236c55.47-87.461,348.477-572.887,944.011-650.734
			c360.411-47.112,780.535,47.908,1084.778,302.802C3378.735,1312.932,3333.271,2393.82,2903.872,2845.878z"/>
		<g>
			
				<linearGradient id="SVGID_00000092427710587670567030000005104797619037463224_" gradientUnits="userSpaceOnUse" x1="-939.6691" y1="2842.6697" x2="-381.8097" y2="1169.0869" gradientTransform="matrix(-1 0 0 1 1155.7772 0)">
				<stop  offset="0" style="stop-color:#09005D"/>
				<stop  offset="1" style="stop-color:#1A0F91"/>
			</linearGradient>
			<path style="fill:url(#SVGID_00000092427710587670567030000005104797619037463224_);" d="M655.008,2903.382
				c0,24.001,19.656,43.638,43.68,43.638h2362.026c24.024,0,43.68-19.637,43.68-43.638l19.654-1357.391
				c0-24-28.277-70.856-80.1-67.335l-2308.433-59.73c-30.143-0.78-59.288,10.822-80.633,32.098
				c-21.345,21.276-33.025,50.366-32.313,80.481L655.008,2903.382z"/>
			
				<linearGradient id="SVGID_00000160171950363396131960000013451637340747283098_" gradientUnits="userSpaceOnUse" x1="665.2036" y1="2186.7454" x2="3063.6233" y2="2186.7454">
				<stop  offset="0" style="stop-color:#4F52FF"/>
				<stop  offset="1" style="stop-color:#4042E2"/>
			</linearGradient>
			<path style="fill:url(#SVGID_00000160171950363396131960000013451637340747283098_);" d="M698.131,2861.517
				c0,22.728,18.596,41.324,41.324,41.324h2264.297c22.728,0,41.324-18.596,41.324-41.324l18.547-1232.252
				c-2.185-74.154-67.197-100.806-106.606-99.232l-2212.423-59.356c-21.177-0.568-41.651,7.591-56.65,22.551
				c-14.999,14.96-23.248,35.434-22.716,56.612L698.131,2861.517z"/>
			<g>
				<path style="opacity:0.55;fill:#FFFFFF;" d="M3020.609,2276.111c-0.03,0-0.06,0-0.091,0c-3.346-0.048-6.018-2.799-5.966-6.148
					l1.466-99.934c0.048-3.313,2.75-5.966,6.051-5.966c0.03,0,0.06,0,0.091,0c3.346,0.048,6.018,2.799,5.966,6.147l-1.466,99.934
					C3026.612,2273.457,3023.909,2276.111,3020.609,2276.111z"/>
				<path style="opacity:0.55;fill:#FFFFFF;" d="M3024.206,2031.222c-0.03,0-0.06,0-0.091,0c-3.346-0.048-6.018-2.805-5.966-6.148
					l5.619-382.748c-0.106-22.735-7.006-40.887-20.513-53.829c-25.213-24.155-65.242-22.922-66.929-22.844l-707.139-18.963
					c-3.343-0.085-5.981-2.871-5.891-6.214c0.088-3.343,2.656-6.19,6.217-5.888l706.719,18.963
					c4.398-0.26,47.017-0.997,75.401,26.198c15.968,15.3,24.125,36.378,24.246,62.637l-5.622,382.869
					C3030.208,2028.568,3027.506,2031.222,3024.206,2031.222z"/>
			</g>
			
				<linearGradient id="SVGID_00000023979087022682953890000014803614640547589535_" gradientUnits="userSpaceOnUse" x1="1855.7574" y1="1364.001" x2="1855.7574" y2="2032.8301">
				<stop  offset="0" style="stop-color:#09005D"/>
				<stop  offset="1" style="stop-color:#1A0F91"/>
			</linearGradient>
			<path style="fill:url(#SVGID_00000023979087022682953890000014803614640547589535_);" d="M469.043,3059.7h2773.428
				c3.109,0,5.654-2.544,5.654-5.654v-107.958c0-3.109-2.544-5.654-5.654-5.654H469.043c-3.109,0-5.654,2.544-5.654,5.654v107.958
				C463.39,3057.156,465.934,3059.7,469.043,3059.7z"/>
		</g>
		<g>
			<path style="fill:#91B3FA;" d="M2615.168,479.548l-1639.07-10.035c-53.867-0.33-96.949,44.664-94.281,98.466L994.58,2896.706
				h1823.979l101.274-2080.592L2615.168,479.548z"/>
			<path style="fill:#BDD0FB;" d="M2683.324,806.138c-53.392-1.879-94.44-47.896-90.232-101.155l17.571-222.367l309.493,332.132
				L2683.324,806.138z"/>
			<g>
				<path style="opacity:0.39;fill:#FFFFFF;" d="M2622.819,1661.65h-1421.85c-42.899,0-78.036-19.601-79.343-44.261l-29.709-560.834
					c-1.364-25.745,34.555-47.041,79.342-47.041h1451.559c43.84,0,79.379,20.438,79.379,45.651v560.834
					C2702.198,1641.212,2666.659,1661.65,2622.819,1661.65z"/>
				<path style="fill:#FFFFFF;" d="M2620.538,1666.667H1198.686c-45.845,0-82.895-21.528-84.351-49.013l-29.709-560.833
					c-0.503-9.518,3.289-18.829,10.973-26.929c14.853-15.663,42.971-25.393,73.378-25.393h1451.561
					c47.324,0,84.394,22.256,84.394,50.667V1616C2704.932,1644.411,2667.862,1666.667,2620.538,1666.667z M1168.978,1014.531
					c-27.749,0-53.075,8.532-66.099,22.264c-5.823,6.14-8.592,12.699-8.233,19.493l29.709,560.835
					c1.153,21.787,34.5,39.511,74.332,39.511h1421.852c40.309,0,74.361-18.608,74.361-40.634v-560.835
					c0-22.026-34.052-40.634-74.361-40.634H1168.978z"/>
				
					<rect x="1179.963" y="1328.33" transform="matrix(0.0049 -1 1 0.0049 167.5738 2835.0872)" style="fill:#FFFFFF;" width="656.616" height="10.033"/>
				
					<rect x="2016.007" y="1328.33" transform="matrix(0.0049 -1 1 0.0049 999.5343 3671.1211)" style="fill:#FFFFFF;" width="656.616" height="10.033"/>
				
					<rect x="2099.897" y="596.177" transform="matrix(0.0049 -1 1 0.0049 903.4337 3290.2395)" style="fill:#FFFFFF;" width="10.033" height="1190.016"/>
				<rect x="1506.631" y="1441.19" style="fill:#FFFFFF;" width="1193.167" height="10.033"/>
			</g>
			<g>
				<path style="opacity:0.39;fill:#FFFFFF;" d="M2625.252,2751.841h-1421.85c-42.899,0-78.036-19.601-79.343-44.26l-29.709-560.834
					c-1.364-25.745,34.555-47.041,79.343-47.041h1451.559c43.84,0,79.379,20.438,79.379,45.651v560.834
					C2704.632,2731.402,2669.092,2751.841,2625.252,2751.841z"/>
				<path style="fill:#FFFFFF;" d="M2622.971,2756.857H1201.119c-45.845,0-82.895-21.528-84.351-49.013l-29.709-560.833
					c-0.503-9.518,3.289-18.829,10.973-26.93c14.853-15.663,42.971-25.393,73.378-25.393h1451.56
					c47.324,0,84.394,22.256,84.394,50.667v560.834C2707.365,2734.601,2670.295,2756.857,2622.971,2756.857z M1171.411,2104.722
					c-27.749,0-53.075,8.532-66.099,22.264c-5.823,6.14-8.596,12.699-8.233,19.493l29.709,560.835
					c1.153,21.787,34.5,39.511,74.332,39.511h1421.852c40.309,0,74.362-18.608,74.362-40.634v-560.834
					c0-22.026-34.052-40.634-74.362-40.634H1171.411z"/>
				
					<rect x="1182.397" y="2418.521" transform="matrix(0.0049 -1 1 0.0049 -920.166 3922.4119)" style="fill:#FFFFFF;" width="656.616" height="10.033"/>
				
					<rect x="2018.44" y="2418.521" transform="matrix(0.0049 -1 1 0.0049 -88.1988 4758.4443)" style="fill:#FFFFFF;" width="656.616" height="10.033"/>
				
					<rect x="2102.331" y="1686.368" transform="matrix(0.0049 -1 1 0.0049 -184.3218 4377.5249)" style="fill:#FFFFFF;" width="10.033" height="1190.015"/>
				<rect x="1509.064" y="2531.381" style="fill:#FFFFFF;" width="1193.17" height="10.033"/>
			</g>
			<path style="opacity:0.55;fill:#FFFFFF;" d="M2544.328,898.573h-1328.83c-4.285,0-7.758-3.473-7.758-7.758v-99.91
				c0-4.284,3.473-7.758,7.758-7.758h1328.83c4.284,0,7.758,3.473,7.758,7.758v99.91
				C2552.086,895.099,2548.613,898.573,2544.328,898.573z"/>
			<path style="opacity:0.42;fill:#FFFFFF;" d="M2675.268,1857.33H1132.716c-3.811,0-6.9-3.089-6.9-6.9v-73.147
				c0-3.811,3.089-6.9,6.9-6.9h1542.552c3.811,0,6.9,3.089,6.9,6.9v73.147C2682.168,1854.241,2679.079,1857.33,2675.268,1857.33z"/>
			<path style="opacity:0.42;fill:#FFFFFF;" d="M2670.748,1991.096H1128.197c-3.811,0-6.9-3.089-6.9-6.9v-73.147
				c0-3.811,3.089-6.9,6.9-6.9h1542.552c3.811,0,6.9,3.089,6.9,6.9v73.147C2677.648,1988.007,2674.559,1991.096,2670.748,1991.096z"
				/>
		</g>
		<g>
			
				<linearGradient id="SVGID_00000036221277223566018930000015438887836030967993_" gradientUnits="userSpaceOnUse" x1="718.7197" y1="2024.7554" x2="862.5663" y2="1593.2145" gradientTransform="matrix(0.9994 -0.0353 0.0353 0.9994 1148.4005 -306.2733)">
				<stop  offset="0" style="stop-color:#4F52FF"/>
				<stop  offset="1" style="stop-color:#4042E2"/>
			</linearGradient>
			<path style="fill:url(#SVGID_00000036221277223566018930000015438887836030967993_);" d="M2305.798,1340.602l3.573,306.391
				l0.55,47.441c0.219,6.188-4.677,11.432-10.865,11.65l-608.699,21.488c-6.188,0.218-11.441-4.667-11.659-10.855l-2.361-47.377
				l-15.052-302.244c-0.218-6.188,6.647-18.521,20.033-18.082l594.347-36.398c7.76-0.468,15.379,2.249,21.073,7.546
				C2302.432,1325.45,2305.708,1332.839,2305.798,1340.602z"/>
			<g style="opacity:0.12;">
				
					<linearGradient id="SVGID_00000116193612917446843770000002790211174080484015_" gradientUnits="userSpaceOnUse" x1="722.0939" y1="2017.3373" x2="857.2881" y2="1611.7533" gradientTransform="matrix(0.9994 -0.0353 0.0353 0.9994 1148.4005 -306.2733)">
					<stop  offset="0" style="stop-color:#9CFFFB"/>
					<stop  offset="1" style="stop-color:#9BFFFA"/>
				</linearGradient>
				<path style="fill:url(#SVGID_00000116193612917446843770000002790211174080484015_);" d="M2294.7,1685.389
					c0.204,5.772-4.455,10.665-10.352,10.873l-579.853,20.47c-5.898,0.208-10.89-4.344-11.093-10.116l-16.349-326.269
					c-0.204-5.772,6.34-17.285,19.092-16.888l566.189-34.37c7.393-0.449,14.646,2.089,20.067,7.021
					c5.42,4.932,8.535,11.826,8.615,19.075L2294.7,1685.389z"/>
			</g>
			<path style="fill:#91B3FA;" d="M2219.14,1701.718c-0.898,0-1.639-0.71-1.672-1.613c-0.033-0.923,0.689-1.697,1.613-1.729
				l64.91-2.291c3.782-0.134,7.665-2.061,10.653-5.287c2.985-3.223,4.621-7.25,4.487-11.043l-7.009-198.537
				c-0.032-0.923,0.689-1.697,1.613-1.729c0.95-0.124,1.698,0.687,1.731,1.612l7.008,198.537
				c0.346,9.827-8.579,19.443-18.366,19.789l-64.91,2.291C2219.179,1701.718,2219.159,1701.718,2219.14,1701.718z"/>
			<path style="fill:#91B3FA;" d="M1681.843,1504.433c-0.898,0-1.639-0.71-1.672-1.613l-4.203-119.003
				c-0.457-13.055,9.275-24.443,21.254-24.866l51.563-1.821c0.954-0.124,1.698,0.688,1.731,1.612
				c0.033,0.922-0.689,1.697-1.613,1.729l-51.563,1.821c-9.993,0.354-18.416,10.357-18.027,21.407l4.203,119.003
				c0.033,0.923-0.689,1.697-1.613,1.729C1681.882,1504.433,1681.863,1504.433,1681.843,1504.433z"/>
			<g>
				
					<linearGradient id="SVGID_00000119826426940755594110000012040582995512340407_" gradientUnits="userSpaceOnUse" x1="785.9922" y1="1762.6613" x2="535.9673" y2="1857.8036" gradientTransform="matrix(0.9994 -0.0353 0.0353 0.9994 1148.4005 -306.2733)">
					<stop  offset="0" style="stop-color:#FE7062"/>
					<stop  offset="1" style="stop-color:#FF928E"/>
				</linearGradient>
				<path style="fill:url(#SVGID_00000119826426940755594110000012040582995512340407_);" d="M1828.073,1488.279
					c-0.219-6.219-5.439-11.083-11.658-10.864l-75.185,2.654c-6.219,0.219-11.083,5.439-10.863,11.658l2.019,57.186
					c0.219,6.219,5.439,11.083,11.659,10.864l75.185-2.654c6.219-0.22,11.083-5.439,10.863-11.659L1828.073,1488.279z"/>
				<g>
					<path style="opacity:0.8;fill:#FFFFFF;" d="M1766.028,1536.343c-3.481,0-6.378-2.769-6.505-6.277l-0.666-18.875
						c-0.124-3.589,2.691-6.611,6.28-6.737l21.44-0.758c3.416-0.126,6.61,2.686,6.737,6.274c0,0.002,0,0.003,0,0.003l0.666,18.871
						c0.124,3.589-2.691,6.612-6.28,6.737l-21.44,0.756C1766.181,1536.342,1766.106,1536.343,1766.028,1536.343z M1786.805,1509.869
						c-0.003,0-0.006,0-0.013,0l-21.44,0.758c-0.183,0.007-0.33,0.163-0.323,0.349l0.666,18.868
						c0.006,0.178,0.157,0.322,0.336,0.322c0.003,0,0.006,0,0.013,0l21.44-0.756c0.183-0.007,0.33-0.163,0.323-0.349l-0.666-18.865
						C1787.135,1510.013,1786.984,1509.869,1786.805,1509.869z"/>
					<g>
						<path style="fill:#FFFFFF;" d="M1731.238,1519.554c-1.656,0-3.024-1.313-3.083-2.98c-0.062-1.705,1.274-3.137,2.978-3.196
							l30.855-1.089c1.617-0.024,3.135,1.272,3.194,2.977c0.062,1.705-1.274,3.137-2.978,3.196l-30.855,1.089
							C1731.313,1519.552,1731.277,1519.554,1731.238,1519.554z"/>
						<path style="fill:#FFFFFF;" d="M1731.509,1527.267c-1.656,0-3.024-1.313-3.083-2.98c-0.062-1.705,1.274-3.137,2.978-3.195
							l30.855-1.089c1.63-0.039,3.135,1.27,3.194,2.977c0.062,1.705-1.274,3.137-2.978,3.195l-30.855,1.089
							C1731.584,1527.266,1731.548,1527.267,1731.509,1527.267z"/>
					</g>
					<g>
						<path style="fill:#FFFFFF;" d="M1795.518,1517.284c-1.656,0-3.024-1.313-3.083-2.98c-0.062-1.705,1.274-3.137,2.978-3.196
							l33.425-1.179c1.574-0.065,3.135,1.27,3.194,2.977c0.062,1.705-1.274,3.137-2.978,3.196l-33.425,1.179
							C1795.593,1517.282,1795.557,1517.284,1795.518,1517.284z"/>
						<path style="fill:#FFFFFF;" d="M1795.789,1524.998c-1.656,0-3.024-1.313-3.083-2.98c-0.062-1.705,1.274-3.135,2.978-3.196
							l33.428-1.181c1.584-0.08,3.135,1.27,3.194,2.977c0.062,1.705-1.274,3.135-2.978,3.196l-33.428,1.181
							C1795.864,1524.996,1795.828,1524.998,1795.789,1524.998z"/>
					</g>
					<g>
						<g>
							<path style="fill:#FFFFFF;" d="M1768.843,1510.624c-1.355,0-2.599-0.9-2.975-2.271l-7.616-27.747
								c-0.451-1.646,0.516-3.346,2.162-3.797c1.623-0.447,3.344,0.514,3.795,2.16l7.616,27.748
								c0.451,1.646-0.516,3.346-2.162,3.796C1769.392,1510.588,1769.114,1510.624,1768.843,1510.624z"/>
							<path style="fill:#FFFFFF;" d="M1786.769,1509.99c-0.209,0-0.421-0.021-0.634-0.065c-1.669-0.349-2.74-1.984-2.394-3.654
								l5.885-28.224c0.349-1.67,1.995-2.738,3.654-2.394c1.669,0.349,2.74,1.984,2.394,3.654l-5.885,28.224
								C1789.486,1508.989,1788.199,1509.99,1786.769,1509.99z"/>
						</g>
						<g>
							<path style="fill:#FFFFFF;" d="M1764.068,1563.139c-0.199,0-0.405-0.02-0.607-0.06c-1.675-0.335-2.76-1.961-2.423-3.635
								l5.64-28.216c0.333-1.671,1.956-2.756,3.631-2.423c1.675,0.335,2.76,1.961,2.423,3.635l-5.64,28.216
								C1766.802,1562.123,1765.512,1563.139,1764.068,1563.139z"/>
							<path style="fill:#FFFFFF;" d="M1795.482,1562.028c-1.349,0-2.586-0.888-2.972-2.247l-7.857-27.738
								c-0.464-1.643,0.49-3.349,2.129-3.814c1.652-0.469,3.351,0.492,3.814,2.129l7.857,27.738c0.464,1.643-0.49,3.349-2.129,3.814
								C1796.044,1561.991,1795.759,1562.028,1795.482,1562.028z"/>
						</g>
					</g>
				</g>
			</g>
			<path style="fill:#7D97F4;" d="M1825.116,1404.507c0.261,7.386-5.515,13.584-12.901,13.845l-83.818,2.959
				c-7.386,0.261-13.584-5.515-13.845-12.901l-0.054-1.538c-0.261-7.386,5.515-13.584,12.901-13.845l83.818-2.959
				c7.386-0.261,13.584,5.515,13.845,12.901L1825.116,1404.507z"/>
			<g>
				<path style="fill:#7D97F4;" d="M1839.931,1605.403c0.249,7.047-5.262,12.961-12.309,13.21l-92.757,3.274
					c-7.047,0.249-12.961-5.262-13.21-12.309l-0.007-0.193c-0.249-7.047,5.262-12.961,12.309-13.21l92.757-3.274
					c7.047-0.249,12.961,5.262,13.21,12.309L1839.931,1605.403z"/>
				<path style="fill:#7D97F4;" d="M1973.635,1600.683c0.249,7.047-5.262,12.961-12.309,13.21l-92.757,3.274
					c-7.047,0.249-12.961-5.262-13.21-12.309l-0.007-0.193c-0.249-7.047,5.262-12.961,12.309-13.21l92.757-3.275
					c7.047-0.249,12.961,5.262,13.21,12.309L1973.635,1600.683z"/>
				<path style="fill:#7D97F4;" d="M2107.339,1595.963c0.249,7.047-5.262,12.961-12.309,13.21l-92.757,3.275
					c-7.047,0.249-12.961-5.262-13.21-12.309l-0.007-0.193c-0.249-7.047,5.262-12.961,12.309-13.21l92.757-3.275
					c7.047-0.249,12.961,5.262,13.21,12.309L2107.339,1595.963z"/>
				<path style="fill:#7D97F4;" d="M2243.615,1591.152c0.249,7.047-5.262,12.961-12.309,13.21l-92.757,3.275
					c-7.047,0.249-12.961-5.262-13.21-12.309l-0.007-0.193c-0.249-7.047,5.262-12.961,12.309-13.21l92.757-3.275
					c7.047-0.249,12.961,5.262,13.21,12.309L2243.615,1591.152z"/>
			</g>
			<g style="opacity:0.8;">
				<g>
					<path style="fill:#7D97F4;" d="M1929.352,1658.928c0.198,5.603-4.184,10.305-9.787,10.503l-172.553,6.092
						c-5.603,0.198-10.305-4.184-10.503-9.787l-0.01-0.28c-0.198-5.603,4.184-10.305,9.787-10.503l172.552-6.092
						c5.603-0.198,10.305,4.184,10.503,9.787L1929.352,1658.928z"/>
				</g>
				<g>
					<path style="fill:#7D97F4;" d="M2230.004,1643.165c0.198,5.603-4.184,10.305-9.787,10.503l-74.846,2.642
						c-5.603,0.198-10.305-4.184-10.503-9.787l-0.01-0.28c-0.198-5.603,4.184-10.305,9.787-10.503l74.846-2.642
						c5.603-0.198,10.305,4.184,10.503,9.787L2230.004,1643.165z"/>
				</g>
			</g>
		</g>
		<g>
			<g>
				
					<linearGradient id="SVGID_00000057841590300725344720000002612844461699445154_" gradientUnits="userSpaceOnUse" x1="1607.7832" y1="1272.4807" x2="1750.4374" y2="1106.9001">
					<stop  offset="0" style="stop-color:#FE7062"/>
					<stop  offset="1" style="stop-color:#FF928E"/>
				</linearGradient>
				
					<circle style="fill:url(#SVGID_00000057841590300725344720000002612844461699445154_);" cx="1753.319" cy="1103.556" r="106.354"/>
				
					<linearGradient id="SVGID_00000166653541155826434390000006834547636507307946_" gradientUnits="userSpaceOnUse" x1="1831.0461" y1="986.1317" x2="1409.2139" y2="1623.4001">
					<stop  offset="0" style="stop-color:#FE7062"/>
					<stop  offset="1" style="stop-color:#FF928E"/>
				</linearGradient>
				
					<circle style="fill:url(#SVGID_00000166653541155826434390000006834547636507307946_);" cx="1753.319" cy="1103.556" r="102.818"/>
				<path style="opacity:0.78;fill:#FFFFFF;" d="M1668.533,1064.839c-0.604,0-1.219-0.137-1.796-0.429
					c-1.97-0.993-2.759-3.395-1.765-5.365c16.934-33.551,50.785-54.394,88.345-54.394c6,0,12,0.54,17.838,1.603
					c2.17,0.396,3.609,2.474,3.214,4.645c-0.394,2.17-2.467,3.603-4.645,3.214c-5.366-0.979-10.887-1.474-16.407-1.474
					c-34.528,0-65.648,19.163-81.216,50.007C1671.4,1064.037,1669.994,1064.839,1668.533,1064.839z"/>
				
					<ellipse transform="matrix(0.7071 -0.7071 0.7071 0.7071 -267.7245 1565.2478)" style="opacity:0.78;fill:#FFFFFF;" cx="1755.559" cy="1105.796" rx="87.023" ry="87.022"/>
				<g>
					
						<linearGradient id="SVGID_00000145755425119944341370000008004796019063128475_" gradientUnits="userSpaceOnUse" x1="1818.4625" y1="1004.3915" x2="1593.8458" y2="1381.4857">
						<stop  offset="0" style="stop-color:#FE7062"/>
						<stop  offset="1" style="stop-color:#FF928E"/>
					</linearGradient>
					<path style="fill:url(#SVGID_00000145755425119944341370000008004796019063128475_);" d="M1747.019,1170.49v-9.467
						c-9.87-0.395-19.632-2.725-26.565-5.76c-2.476-1.083-3.738-3.863-3.027-6.469l2.405-8.819c0.882-3.235,4.401-4.908,7.494-3.612
						c6.878,2.884,15.37,5.164,24.527,5.164c9.506,0,16.596-3.222,16.596-9.829c0-5.961-5.478-9.505-18.69-13.05
						c-18.851-5.156-32.386-13.374-32.386-29.969c0-14.985,10.957-26.425,29.969-29.485v-9.469c0-3.046,2.469-5.516,5.516-5.516
						h5.563c3.046,0,5.516,2.47,5.516,5.516v8.501c9.133,0.365,15.78,1.927,21.056,3.781c2.703,0.95,4.18,3.862,3.43,6.627
						l-2.212,8.156c-0.853,3.145-4.214,4.868-7.262,3.715c-4.857-1.837-11.725-3.75-20.652-3.75c-11.279,0-14.5,4.672-14.5,8.862
						c0,5.156,6.767,8.7,21.429,13.213c20.946,6.283,29.646,14.984,29.646,30.613c0,14.34-10.634,27.23-31.258,30.453v10.596
						c0,3.047-2.47,5.516-5.516,5.516h-5.563C1749.489,1176.006,1747.019,1173.536,1747.019,1170.49z"/>
				</g>
			</g>
			<g>
				
					<linearGradient id="SVGID_00000133509874772793412670000013505789019797257649_" gradientUnits="userSpaceOnUse" x1="1802.7052" y1="1271.5016" x2="2051.0413" y2="983.2546">
					<stop  offset="0" style="stop-color:#FE7062"/>
					<stop  offset="1" style="stop-color:#FF928E"/>
				</linearGradient>
				
					<circle style="fill:url(#SVGID_00000133509874772793412670000013505789019797257649_);" cx="2056.057" cy="977.432" r="185.144"/>
				
					<linearGradient id="SVGID_00000053528227975803190090000010433114297894829990_" gradientUnits="userSpaceOnUse" x1="2191.3677" y1="773.0176" x2="1457.0306" y2="1882.3914">
					<stop  offset="0" style="stop-color:#FE7062"/>
					<stop  offset="1" style="stop-color:#FF928E"/>
				</linearGradient>
				
					<circle style="fill:url(#SVGID_00000053528227975803190090000010433114297894829990_);" cx="2056.058" cy="977.432" r="178.987"/>
				<path style="opacity:0.78;fill:#FFFFFF;" d="M1908.463,907.075c-0.605,0-1.219-0.137-1.796-0.429
					c-1.97-0.992-2.759-3.395-1.765-5.365c28.977-57.407,86.896-93.068,151.156-93.068c10.249,0,20.52,0.924,30.523,2.746
					c2.17,0.396,3.609,2.474,3.214,4.644c-0.394,2.169-2.467,3.596-4.645,3.214c-9.533-1.737-19.32-2.617-29.092-2.617
					c-61.229,0-116.415,33.98-144.026,88.68C1911.329,906.273,1909.923,907.075,1908.463,907.075z"/>
				<circle style="opacity:0.78;fill:#FFFFFF;" cx="2059.958" cy="981.332" r="151.491"/>
				<g>
					
						<linearGradient id="SVGID_00000067228513827294824760000018256204377189751474_" gradientUnits="userSpaceOnUse" x1="2169.4614" y1="804.8046" x2="1778.4423" y2="1461.2612">
						<stop  offset="0" style="stop-color:#FE7062"/>
						<stop  offset="1" style="stop-color:#FF928E"/>
					</linearGradient>
					<path style="fill:url(#SVGID_00000067228513827294824760000018256204377189751474_);" d="M2045.091,1093.952v-16.481
						c-17.181-0.688-34.176-4.743-46.246-10.026c-4.31-1.887-6.507-6.723-5.269-11.263l4.187-15.352
						c1.536-5.632,7.661-8.545,13.044-6.288c11.973,5.019,26.757,8.99,42.698,8.99c16.549,0,28.89-5.611,28.89-17.111
						c0-10.378-9.536-16.548-32.537-22.718c-32.816-8.976-56.378-23.281-56.378-52.171c0-26.087,19.074-46.001,52.171-51.329V883.72
						c0-5.304,4.3-9.603,9.603-9.603h9.683c5.304,0,9.603,4.299,9.603,9.603v14.799c15.898,0.636,27.471,3.355,36.655,6.582
						c4.706,1.653,7.277,6.722,5.972,11.536l-3.851,14.198c-1.485,5.475-7.336,8.474-12.643,6.467
						c-8.456-3.198-20.411-6.527-35.951-6.527c-19.634,0-25.243,8.134-25.243,15.427c0,8.975,11.78,15.146,37.304,23
						c36.464,10.938,51.61,26.084,51.61,53.292c0,24.964-18.512,47.403-54.414,53.013v18.444c0,5.304-4.299,9.604-9.603,9.604
						h-9.684C2049.391,1103.556,2045.091,1099.256,2045.091,1093.952z"/>
				</g>
			</g>
			<g>
				
					<linearGradient id="SVGID_00000034811718271710563610000010397102849706907277_" gradientUnits="userSpaceOnUse" x1="1923.0476" y1="1693.5552" x2="2178.5828" y2="1396.9523">
					<stop  offset="0" style="stop-color:#FE7062"/>
					<stop  offset="1" style="stop-color:#FF928E"/>
				</linearGradient>
				
					<circle style="fill:url(#SVGID_00000034811718271710563610000010397102849706907277_);" cx="2183.744" cy="1390.961" r="190.511"/>
				
					<linearGradient id="SVGID_00000099642654025800215930000010410393825545002626_" gradientUnits="userSpaceOnUse" x1="2322.9768" y1="1180.6206" x2="1567.3529" y2="2322.1528">
					<stop  offset="0" style="stop-color:#FE7062"/>
					<stop  offset="1" style="stop-color:#FF928E"/>
				</linearGradient>
				
					<circle style="fill:url(#SVGID_00000099642654025800215930000010410393825545002626_);" cx="2183.744" cy="1390.961" r="184.176"/>
				<path style="opacity:0.78;fill:#FFFFFF;" d="M2031.871,1318.447c-0.605,0-1.219-0.136-1.796-0.429
					c-1.97-0.993-2.76-3.395-1.765-5.365c29.797-59.029,89.355-95.701,155.434-95.701c10.545,0,21.104,0.95,31.388,2.822
					c2.171,0.396,3.607,2.474,3.214,4.645c-0.394,2.168-2.463,3.599-4.645,3.214c-9.812-1.786-19.891-2.693-29.957-2.693
					c-63.047,0-119.873,34.988-148.305,91.313C2034.737,1317.646,2033.331,1318.447,2031.871,1318.447z"/>
				
					<ellipse transform="matrix(0.7071 -0.7071 0.7071 0.7071 -345.6165 1955.5564)" style="opacity:0.78;fill:#FFFFFF;" cx="2187.757" cy="1394.974" rx="155.882" ry="155.883"/>
				<g>
					
						<linearGradient id="SVGID_00000026156250400598586360000000621702298509372810_" gradientUnits="userSpaceOnUse" x1="2300.4358" y1="1213.3291" x2="1898.0811" y2="1888.8158">
						<stop  offset="0" style="stop-color:#FE7062"/>
						<stop  offset="1" style="stop-color:#FF928E"/>
					</linearGradient>
					<path style="fill:url(#SVGID_00000026156250400598586360000000621702298509372810_);" d="M2172.46,1510.859V1493.9
						c-17.679-0.708-35.166-4.88-47.586-10.317c-4.435-1.942-6.696-6.919-5.422-11.59l4.308-15.797
						c1.58-5.795,7.883-8.792,13.422-6.47c12.321,5.165,27.533,9.251,43.937,9.251c17.028,0,29.727-5.773,29.727-17.607
						c0-10.678-9.813-17.027-33.479-23.376c-33.768-9.235-58.013-23.956-58.013-53.683c0-26.843,19.627-47.334,53.684-52.817
						v-16.961c0-5.458,4.424-9.882,9.882-9.882h9.964c5.458,0,9.881,4.424,9.881,9.882v15.228
						c16.36,0.655,28.268,3.452,37.719,6.773c4.842,1.701,7.488,6.917,6.145,11.87l-3.962,14.609
						c-1.527,5.634-7.549,8.72-13.009,6.656c-8.701-3.291-21.003-6.717-36.993-6.717c-20.204,0-25.975,8.37-25.975,15.874
						c0,9.235,12.121,15.585,38.385,23.667c37.521,11.256,53.105,26.841,53.105,54.837c0,25.687-19.048,48.776-55.991,54.55v18.98
						c0,5.457-4.424,9.882-9.882,9.882h-9.965C2176.885,1520.741,2172.46,1516.317,2172.46,1510.859z"/>
				</g>
			</g>
			<g>
				
					<linearGradient id="SVGID_00000026152179034267620990000017497867321939459244_" gradientUnits="userSpaceOnUse" x1="2237.1338" y1="1353.1563" x2="2424.3623" y2="1135.8375">
					<stop  offset="0" style="stop-color:#FE7062"/>
					<stop  offset="1" style="stop-color:#FF928E"/>
				</linearGradient>
				
					<circle style="fill:url(#SVGID_00000026152179034267620990000017497867321939459244_);" cx="2428.144" cy="1131.448" r="139.586"/>
				
					<linearGradient id="SVGID_00000053525489029265022690000016538654379155393191_" gradientUnits="userSpaceOnUse" x1="2530.1584" y1="977.3334" x2="1976.5188" y2="1813.7253">
					<stop  offset="0" style="stop-color:#FE7062"/>
					<stop  offset="1" style="stop-color:#FF928E"/>
				</linearGradient>
				
					<circle style="fill:url(#SVGID_00000053525489029265022690000016538654379155393191_);" cx="2428.144" cy="1131.448" r="134.944"/>
				<path style="opacity:0.78;fill:#FFFFFF;" d="M2316.868,1079.385c-0.605,0-1.219-0.137-1.796-0.429
					c-1.97-0.993-2.759-3.395-1.765-5.365c22.013-43.613,66.016-70.706,114.838-70.706c7.796,0,15.597,0.702,23.191,2.087
					c2.168,0.396,3.607,2.476,3.211,4.645c-0.398,2.172-2.459,3.609-4.647,3.214c-7.119-1.299-14.439-1.958-21.756-1.958
					c-45.79,0-87.06,25.412-107.708,66.318C2319.734,1078.584,2318.328,1079.385,2316.868,1079.385z"/>
				
					<ellipse transform="matrix(0.9732 -0.2298 0.2298 0.9732 -195.5952 588.8958)" style="opacity:0.78;fill:#FFFFFF;" cx="2431.085" cy="1134.388" rx="114.214" ry="114.214"/>
				<g>
					
						<linearGradient id="SVGID_00000036953788085598592540000001935778199768642432_" gradientUnits="userSpaceOnUse" x1="2513.6431" y1="1001.2985" x2="2218.8416" y2="1496.2214">
						<stop  offset="0" style="stop-color:#FE7062"/>
						<stop  offset="1" style="stop-color:#FF928E"/>
					</linearGradient>
					<path style="fill:url(#SVGID_00000036953788085598592540000001935778199768642432_);" d="M2419.876,1219.296v-12.426
						c-12.953-0.519-25.766-3.576-34.866-7.559c-3.249-1.422-4.906-5.069-3.972-8.491l3.156-11.575
						c1.158-4.246,5.776-6.442,9.835-4.741c9.027,3.785,20.173,6.779,32.192,6.779c12.476,0,21.781-4.23,21.781-12.901
						c0-7.824-7.19-12.476-24.531-17.127c-24.741-6.768-42.505-17.552-42.505-39.334c0-19.667,14.38-34.681,39.333-38.698v-12.427
						c0-3.999,3.241-7.24,7.24-7.24h7.3c3.999,0,7.241,3.242,7.241,7.24v11.157c11.986,0.48,20.711,2.529,27.635,4.963
						c3.547,1.246,5.486,5.068,4.502,8.697l-2.903,10.704c-1.119,4.127-5.531,6.389-9.531,4.876
						c-6.375-2.411-15.389-4.921-27.105-4.921c-14.803,0-19.031,6.132-19.031,11.63c0,6.767,8.881,11.419,28.125,17.34
						c27.491,8.248,38.91,19.666,38.91,40.179c0,18.821-13.956,35.738-41.024,39.968v13.906c0,3.999-3.241,7.24-7.24,7.24h-7.302
						C2423.118,1226.536,2419.876,1223.295,2419.876,1219.296z"/>
				</g>
			</g>
		</g>
		<g>
			
				<linearGradient id="SVGID_00000052096700678305123670000006541943896366485402_" gradientUnits="userSpaceOnUse" x1="961.2856" y1="3401.5642" x2="1203.3434" y2="1942.4934">
				<stop  offset="0" style="stop-color:#FE7062"/>
				<stop  offset="1" style="stop-color:#FF928E"/>
			</linearGradient>
			<path style="fill:url(#SVGID_00000052096700678305123670000006541943896366485402_);" d="M1656.488,3234.524H478.632
				c-9.255,0-16.757-7.502-16.757-16.757V2302.77h1211.37v914.997C1673.245,3227.021,1665.743,3234.524,1656.488,3234.524z"/>
			
				<linearGradient id="SVGID_00000098208100849823180460000015954680820684456352_" gradientUnits="userSpaceOnUse" x1="2125.6741" y1="1725.2914" x2="1314.3136" y2="2480.8706">
				<stop  offset="0" style="stop-color:#FE7062"/>
				<stop  offset="1" style="stop-color:#FF928E"/>
			</linearGradient>
			<path style="fill:url(#SVGID_00000098208100849823180460000015954680820684456352_);" d="M1656.488,3167.558H478.632
				c-9.255,0-16.757-7.502-16.757-16.757v-887.575h1211.37v887.575C1673.245,3160.056,1665.743,3167.558,1656.488,3167.558z"/>
			<g>
				
					<linearGradient id="SVGID_00000023963254054193394790000009353779839543959719_" gradientUnits="userSpaceOnUse" x1="2274.3872" y1="1805.5905" x2="628.688" y2="2314.6416">
					<stop  offset="0" style="stop-color:#E1473D"/>
					<stop  offset="1" style="stop-color:#E9605A"/>
				</linearGradient>
				
					<rect x="531.612" y="2302.77" style="fill:url(#SVGID_00000023963254054193394790000009353779839543959719_);" width="41.706" height="70.9"/>
				
					<linearGradient id="SVGID_00000132810669157159010790000004118136139750657973_" gradientUnits="userSpaceOnUse" x1="2282.5784" y1="1832.0828" x2="636.8818" y2="2341.1333">
					<stop  offset="0" style="stop-color:#E1473D"/>
					<stop  offset="1" style="stop-color:#E9605A"/>
				</linearGradient>
				
					<rect x="625.45" y="2302.77" style="fill:url(#SVGID_00000132810669157159010790000004118136139750657973_);" width="41.706" height="70.9"/>
				
					<linearGradient id="SVGID_00000072965353757688827640000005725857666199700619_" gradientUnits="userSpaceOnUse" x1="2289.8164" y1="1855.4835" x2="644.1174" y2="2364.5349">
					<stop  offset="0" style="stop-color:#E1473D"/>
					<stop  offset="1" style="stop-color:#E9605A"/>
				</linearGradient>
				
					<rect x="708.339" y="2302.77" style="fill:url(#SVGID_00000072965353757688827640000005725857666199700619_);" width="41.706" height="70.9"/>
				
					<linearGradient id="SVGID_00000012429993018706807700000003478779472022047884_" gradientUnits="userSpaceOnUse" x1="2298.0081" y1="1881.9758" x2="652.3115" y2="2391.0264">
					<stop  offset="0" style="stop-color:#E1473D"/>
					<stop  offset="1" style="stop-color:#E9605A"/>
				</linearGradient>
				
					<rect x="802.177" y="2302.77" style="fill:url(#SVGID_00000012429993018706807700000003478779472022047884_);" width="41.706" height="70.9"/>
				
					<linearGradient id="SVGID_00000167377232147290788150000006828976872084159125_" gradientUnits="userSpaceOnUse" x1="2305.2517" y1="1905.3749" x2="659.5527" y2="2414.4263">
					<stop  offset="0" style="stop-color:#E1473D"/>
					<stop  offset="1" style="stop-color:#E9605A"/>
				</linearGradient>
				
					<rect x="885.067" y="2302.77" style="fill:url(#SVGID_00000167377232147290788150000006828976872084159125_);" width="41.706" height="70.9"/>
				
					<linearGradient id="SVGID_00000082344323448630032250000010865487744157102778_" gradientUnits="userSpaceOnUse" x1="2313.4456" y1="1931.8665" x2="667.7464" y2="2440.9177">
					<stop  offset="0" style="stop-color:#E1473D"/>
					<stop  offset="1" style="stop-color:#E9605A"/>
				</linearGradient>
				
					<rect x="978.905" y="2302.77" style="fill:url(#SVGID_00000082344323448630032250000010865487744157102778_);" width="41.706" height="70.9"/>
				
					<linearGradient id="SVGID_00000091717995838910121090000018180810379874222726_" gradientUnits="userSpaceOnUse" x1="2320.6812" y1="1955.2681" x2="674.9821" y2="2464.3193">
					<stop  offset="0" style="stop-color:#E1473D"/>
					<stop  offset="1" style="stop-color:#E9605A"/>
				</linearGradient>
				
					<rect x="1061.795" y="2302.77" style="fill:url(#SVGID_00000091717995838910121090000018180810379874222726_);" width="41.706" height="70.9"/>
				
					<linearGradient id="SVGID_00000004519571837486690210000005306120499834937736_" gradientUnits="userSpaceOnUse" x1="2328.8748" y1="1981.7596" x2="683.1758" y2="2490.8108">
					<stop  offset="0" style="stop-color:#E1473D"/>
					<stop  offset="1" style="stop-color:#E9605A"/>
				</linearGradient>
				
					<rect x="1155.632" y="2302.77" style="fill:url(#SVGID_00000004519571837486690210000005306120499834937736_);" width="41.706" height="70.9"/>
				
					<linearGradient id="SVGID_00000125590163998056928750000009561511152489639103_" gradientUnits="userSpaceOnUse" x1="2336.1165" y1="2005.1594" x2="690.4173" y2="2514.2107">
					<stop  offset="0" style="stop-color:#E1473D"/>
					<stop  offset="1" style="stop-color:#E9605A"/>
				</linearGradient>
				
					<rect x="1238.522" y="2302.77" style="fill:url(#SVGID_00000125590163998056928750000009561511152489639103_);" width="41.706" height="70.9"/>
				
					<linearGradient id="SVGID_00000120560936288869572760000008406834282002173629_" gradientUnits="userSpaceOnUse" x1="2344.3101" y1="2031.651" x2="698.611" y2="2540.7021">
					<stop  offset="0" style="stop-color:#E1473D"/>
					<stop  offset="1" style="stop-color:#E9605A"/>
				</linearGradient>
				
					<rect x="1332.36" y="2302.77" style="fill:url(#SVGID_00000120560936288869572760000008406834282002173629_);" width="41.706" height="70.9"/>
				
					<linearGradient id="SVGID_00000178172989043238485040000005419350952219304872_" gradientUnits="userSpaceOnUse" x1="2351.5457" y1="2055.0525" x2="705.8467" y2="2564.1038">
					<stop  offset="0" style="stop-color:#E1473D"/>
					<stop  offset="1" style="stop-color:#E9605A"/>
				</linearGradient>
				
					<rect x="1415.25" y="2302.77" style="fill:url(#SVGID_00000178172989043238485040000005419350952219304872_);" width="41.706" height="70.9"/>
				
					<linearGradient id="SVGID_00000071550240352717755500000006130251747893041036_" gradientUnits="userSpaceOnUse" x1="2359.7395" y1="2081.5442" x2="714.0404" y2="2590.5955">
					<stop  offset="0" style="stop-color:#E1473D"/>
					<stop  offset="1" style="stop-color:#E9605A"/>
				</linearGradient>
				
					<rect x="1509.088" y="2302.77" style="fill:url(#SVGID_00000071550240352717755500000006130251747893041036_);" width="41.706" height="70.9"/>
			</g>
			<g>
				<g>
					<rect x="1001.009" y="2410.356" style="fill:#FFFFFF;" width="125.879" height="125.879"/>
					<rect x="1153.995" y="2410.356" style="fill:#FFFFFF;" width="125.879" height="125.879"/>
					<rect x="1305.423" y="2410.356" style="fill:#FFFFFF;" width="125.879" height="125.879"/>
					<rect x="1455.605" y="2410.356" style="fill:#FFFFFF;" width="125.879" height="125.879"/>
				</g>
				<g>
					<rect x="546.568" y="2568.64" style="fill:#FFFFFF;" width="125.879" height="125.879"/>
					<rect x="697.996" y="2568.64" style="fill:#FFFFFF;" width="125.879" height="125.879"/>
					<rect x="848.178" y="2568.64" style="fill:#FFFFFF;" width="125.879" height="125.879"/>
					<rect x="1000.853" y="2568.64" style="fill:#FFFFFF;" width="125.879" height="125.879"/>
					<rect x="1153.839" y="2568.64" style="fill:#FFFFFF;" width="125.879" height="125.879"/>
					<rect x="1305.268" y="2568.64" style="fill:#FFFFFF;" width="125.879" height="125.879"/>
					<rect x="1455.45" y="2568.64" style="fill:#FFFFFF;" width="125.879" height="125.879"/>
				</g>
				<g>
					<rect x="550.307" y="2719.445" style="fill:#FFFFFF;" width="125.879" height="125.879"/>
					<rect x="701.735" y="2719.445" style="fill:#FFFFFF;" width="125.879" height="125.879"/>
					
						<linearGradient id="SVGID_00000113329573160763785450000017495329764107313080_" gradientUnits="userSpaceOnUse" x1="-623.0495" y1="1646.2742" x2="925.0231" y2="2789.8948">
						<stop  offset="0" style="stop-color:#E1473D"/>
						<stop  offset="1" style="stop-color:#E9605A"/>
					</linearGradient>
					
						<rect x="851.917" y="2719.445" style="fill:url(#SVGID_00000113329573160763785450000017495329764107313080_);" width="125.879" height="125.879"/>
					<rect x="1004.592" y="2719.445" style="fill:#FFFFFF;" width="125.879" height="125.879"/>
					<rect x="1157.578" y="2719.445" style="fill:#FFFFFF;" width="125.879" height="125.879"/>
					<rect x="1309.007" y="2719.445" style="fill:#FFFFFF;" width="125.879" height="125.879"/>
					<rect x="1459.189" y="2719.445" style="fill:#FFFFFF;" width="125.879" height="125.879"/>
				</g>
				<g>
					<rect x="554.046" y="2868.381" style="fill:#FFFFFF;" width="125.879" height="125.879"/>
					<rect x="705.474" y="2868.381" style="fill:#FFFFFF;" width="125.879" height="125.879"/>
					<rect x="855.656" y="2868.381" style="fill:#FFFFFF;" width="125.879" height="125.879"/>
					<rect x="1008.331" y="2868.381" style="fill:#FFFFFF;" width="125.879" height="125.879"/>
					<rect x="1161.317" y="2868.381" style="fill:#FFFFFF;" width="125.879" height="125.879"/>
					<rect x="1312.746" y="2868.381" style="fill:#FFFFFF;" width="125.879" height="125.879"/>
					<rect x="1462.928" y="2868.381" style="fill:#FFFFFF;" width="125.879" height="125.879"/>
				</g>
				<g>
					<rect x="554.046" y="3016.981" style="fill:#FFFFFF;" width="125.879" height="125.879"/>
					<rect x="705.474" y="3016.981" style="fill:#FFFFFF;" width="125.879" height="125.879"/>
					<rect x="855.656" y="3016.981" style="fill:#FFFFFF;" width="125.879" height="125.879"/>
				</g>
			</g>
			<g>
				
					<linearGradient id="SVGID_00000049207443843146247850000011089094384490771389_" gradientUnits="userSpaceOnUse" x1="625.9429" y1="2129.2974" x2="773.0853" y2="1616.5289">
					<stop  offset="0" style="stop-color:#FEBBBA"/>
					<stop  offset="1" style="stop-color:#FF928E"/>
				</linearGradient>
				<path style="fill:url(#SVGID_00000049207443843146247850000011089094384490771389_);" d="M613.954,2246.335h-53.547
					c-12.329,0-22.415,10.087-22.415,22.415v49.812h16.189v-32.377c0-12.328,10.087-22.415,22.415-22.415h53.548
					c2.013,0,3.958,0.294,5.818,0.798C633.986,2254.222,624.853,2246.335,613.954,2246.335z"/>
				
					<linearGradient id="SVGID_00000084529744485234753260000002013982757916002951_" gradientUnits="userSpaceOnUse" x1="722.0573" y1="2156.8784" x2="869.1997" y2="1644.1099">
					<stop  offset="0" style="stop-color:#FEBBBA"/>
					<stop  offset="1" style="stop-color:#FF928E"/>
				</linearGradient>
				<path style="fill:url(#SVGID_00000084529744485234753260000002013982757916002951_);" d="M717.983,2246.335h-53.547
					c-12.329,0-22.415,10.087-22.415,22.415v49.812h16.188v-32.377c0-12.328,10.087-22.415,22.415-22.415h53.548
					c2.013,0,3.958,0.294,5.818,0.798C738.015,2254.222,728.882,2246.335,717.983,2246.335z"/>
				
					<linearGradient id="SVGID_00000116941323345546037260000009125263056199460738_" gradientUnits="userSpaceOnUse" x1="801.9424" y1="2179.8015" x2="949.0849" y2="1667.033">
					<stop  offset="0" style="stop-color:#FEBBBA"/>
					<stop  offset="1" style="stop-color:#FF928E"/>
				</linearGradient>
				<path style="fill:url(#SVGID_00000116941323345546037260000009125263056199460738_);" d="M804.446,2246.335h-53.547
					c-12.328,0-22.415,10.087-22.415,22.415v49.812h16.189v-32.377c0-12.328,10.087-22.415,22.415-22.415h53.548
					c2.013,0,3.958,0.294,5.818,0.798C824.478,2254.222,815.345,2246.335,804.446,2246.335z"/>
				
					<linearGradient id="SVGID_00000093868741756364888920000014215567594228414337_" gradientUnits="userSpaceOnUse" x1="884.2386" y1="2203.4172" x2="1031.3811" y2="1690.6488">
					<stop  offset="0" style="stop-color:#FEBBBA"/>
					<stop  offset="1" style="stop-color:#FF928E"/>
				</linearGradient>
				<path style="fill:url(#SVGID_00000093868741756364888920000014215567594228414337_);" d="M893.519,2246.335h-53.547
					c-12.328,0-22.415,10.087-22.415,22.415v49.812h16.189v-32.377c0-12.328,10.087-22.415,22.415-22.415h53.548
					c2.013,0,3.958,0.294,5.818,0.798C913.551,2254.222,904.418,2246.335,893.519,2246.335z"/>
				
					<linearGradient id="SVGID_00000053532948525702537200000006378852314045505673_" gradientUnits="userSpaceOnUse" x1="960.3177" y1="2225.2485" x2="1107.4602" y2="1712.48">
					<stop  offset="0" style="stop-color:#FEBBBA"/>
					<stop  offset="1" style="stop-color:#FF928E"/>
				</linearGradient>
				<path style="fill:url(#SVGID_00000053532948525702537200000006378852314045505673_);" d="M975.863,2246.335h-53.547
					c-12.328,0-22.415,10.087-22.415,22.415v49.812h16.189v-32.377c0-12.328,10.087-22.415,22.415-22.415h53.548
					c2.013,0,3.957,0.294,5.818,0.798C995.895,2254.222,986.761,2246.335,975.863,2246.335z"/>
				
					<linearGradient id="SVGID_00000013183135890757906270000000483077132829548965_" gradientUnits="userSpaceOnUse" x1="1042.6143" y1="2248.8638" x2="1189.7567" y2="1736.0953">
					<stop  offset="0" style="stop-color:#FEBBBA"/>
					<stop  offset="1" style="stop-color:#FF928E"/>
				</linearGradient>
				<path style="fill:url(#SVGID_00000013183135890757906270000000483077132829548965_);" d="M1064.936,2246.335h-53.547
					c-12.329,0-22.415,10.087-22.415,22.415v49.812h16.189v-32.377c0-12.328,10.087-22.415,22.415-22.415h53.548
					c2.013,0,3.958,0.294,5.818,0.798C1084.968,2254.222,1075.834,2246.335,1064.936,2246.335z"/>
				
					<linearGradient id="SVGID_00000137111865428143636090000004101212145145830051_" gradientUnits="userSpaceOnUse" x1="1122.4991" y1="2271.7874" x2="1269.6417" y2="1759.0189">
					<stop  offset="0" style="stop-color:#FEBBBA"/>
					<stop  offset="1" style="stop-color:#FF928E"/>
				</linearGradient>
				<path style="fill:url(#SVGID_00000137111865428143636090000004101212145145830051_);" d="M1151.399,2246.335h-53.547
					c-12.328,0-22.415,10.087-22.415,22.415v49.812h16.189v-32.377c0-12.328,10.087-22.415,22.415-22.415h53.548
					c2.013,0,3.958,0.294,5.818,0.798C1171.431,2254.222,1162.297,2246.335,1151.399,2246.335z"/>
				
					<linearGradient id="SVGID_00000031194082836021556410000008532522790707685289_" gradientUnits="userSpaceOnUse" x1="1828.3885" y1="2231.4451" x2="-263.5975" y2="2398.8032">
					<stop  offset="0" style="stop-color:#FEBBBA"/>
					<stop  offset="1" style="stop-color:#FF928E"/>
				</linearGradient>
				<path style="fill:url(#SVGID_00000031194082836021556410000008532522790707685289_);" d="M1247.95,2246.335h-53.547
					c-12.329,0-22.415,10.087-22.415,22.415v49.812h16.189v-32.377c0-12.328,10.087-22.415,22.415-22.415h53.548
					c2.013,0,3.958,0.294,5.818,0.798C1267.982,2254.222,1258.849,2246.335,1247.95,2246.335z"/>
				
					<linearGradient id="SVGID_00000126292782414708851390000000369592477132101269_" gradientUnits="userSpaceOnUse" x1="1828.8538" y1="2237.27" x2="-263.1301" y2="2404.6279">
					<stop  offset="0" style="stop-color:#FEBBBA"/>
					<stop  offset="1" style="stop-color:#FF928E"/>
				</linearGradient>
				<path style="fill:url(#SVGID_00000126292782414708851390000000369592477132101269_);" d="M1331.205,2245.537h-53.547
					c-12.328,0-22.415,10.087-22.415,22.415v49.812h16.188v-32.377c0-12.328,10.087-22.415,22.415-22.415h53.548
					c2.013,0,3.958,0.294,5.818,0.798C1351.237,2253.424,1342.103,2245.537,1331.205,2245.537z"/>
				
					<linearGradient id="SVGID_00000023278564845734713470000017506145738314680228_" gradientUnits="userSpaceOnUse" x1="1829.4034" y1="2244.1431" x2="-262.5804" y2="2411.501">
					<stop  offset="0" style="stop-color:#FEBBBA"/>
					<stop  offset="1" style="stop-color:#FF928E"/>
				</linearGradient>
				<path style="fill:url(#SVGID_00000023278564845734713470000017506145738314680228_);" d="M1417.668,2245.537h-53.547
					c-12.329,0-22.415,10.087-22.415,22.415v49.812h16.188v-32.377c0-12.328,10.087-22.415,22.415-22.415h53.548
					c2.013,0,3.958,0.294,5.818,0.798C1437.7,2253.424,1428.566,2245.537,1417.668,2245.537z"/>
				
					<linearGradient id="SVGID_00000072997776493687719070000006698492696156706722_" gradientUnits="userSpaceOnUse" x1="1830.6534" y1="2259.7661" x2="-261.3304" y2="2427.124">
					<stop  offset="0" style="stop-color:#FEBBBA"/>
					<stop  offset="1" style="stop-color:#FF928E"/>
				</linearGradient>
				<path style="fill:url(#SVGID_00000072997776493687719070000006698492696156706722_);" d="M1588.905,2247.561h-53.547
					c-12.329,0-22.415,10.087-22.415,22.415v49.811h16.188v-32.377c0-12.328,10.087-22.415,22.415-22.415h53.548
					c2.013,0,3.958,0.294,5.818,0.798C1608.937,2255.448,1599.803,2247.561,1588.905,2247.561z"/>
				
					<linearGradient id="SVGID_00000060721906686561671020000004776421635388357548_" gradientUnits="userSpaceOnUse" x1="1830.0183" y1="2251.8179" x2="-261.9655" y2="2419.1758">
					<stop  offset="0" style="stop-color:#FEBBBA"/>
					<stop  offset="1" style="stop-color:#FF928E"/>
				</linearGradient>
				<path style="fill:url(#SVGID_00000060721906686561671020000004776421635388357548_);" d="M1514.219,2245.537h-53.547
					c-12.329,0-22.415,10.087-22.415,22.415v49.812h16.188v-32.377c0-12.328,10.087-22.415,22.415-22.415h53.548
					c2.013,0,3.958,0.294,5.818,0.798C1534.251,2253.424,1525.117,2245.537,1514.219,2245.537z"/>
			</g>
		</g>
		<g>
			
				<linearGradient id="SVGID_00000157289964522519379270000012578477940776630713_" gradientUnits="userSpaceOnUse" x1="21745.9316" y1="2216.4958" x2="21274.5" y2="2485.5828" gradientTransform="matrix(1 0 0 1 -19663.6602 0)">
				<stop  offset="0" style="stop-color:#FEBBBA"/>
				<stop  offset="1" style="stop-color:#FF928E"/>
			</linearGradient>
			<path style="fill:url(#SVGID_00000157289964522519379270000012578477940776630713_);" d="M2010.599,2655.171
				c-0.556-0.214-299.581-523.878-339.988-573.158c-6.799-8.288-17.318-12.509-27.964-11.241l-83.463,9.946l-98.051,212.12
				l163.35-95.133c-16.164,111.789,193.682,277.92,265.651,338.54c7.304,6.152,7.903,17.171,1.307,24.075l-28.732,30.077
				c47.17,47.813,101.601,78.515,163.035,92.714L2010.599,2655.171z"/>
			
				<linearGradient id="SVGID_00000122690399218441641660000015245061726480507548_" gradientUnits="userSpaceOnUse" x1="-11557.7002" y1="20604.373" x2="-11564.3887" y2="21206.3184" gradientTransform="matrix(-0.8974 -0.4412 -0.4412 0.8974 -10368.3799 2161.1482)">
				<stop  offset="0" style="stop-color:#09005D"/>
				<stop  offset="1" style="stop-color:#1A0F91"/>
			</linearGradient>
			<path style="fill:url(#SVGID_00000122690399218441641660000015245061726480507548_);" d="M1879.328,2574.165
				c0,0-18.338,5.924-24.546,22.255c-2.97,7.814,0.232,16.664,7.027,21.532c30.195,21.633,129.794,91.474,175.756,105.152
				c3.767,1.121,7.352-2.288,6.504-6.126c-2.359-10.677-9.988-31.999-34.568-63.213l2.205,4.46c2.791,5.645-3.356,11.522-8.84,8.427
				C1972.126,2649.301,1909.51,2611.317,1879.328,2574.165z"/>
			
				<linearGradient id="SVGID_00000000912539474711927030000014684275165673661628_" gradientUnits="userSpaceOnUse" x1="21700.3262" y1="2283.6038" x2="23313.3359" y2="1273.8356" gradientTransform="matrix(1 0 0 1 -19663.6602 0)">
				<stop  offset="0" style="stop-color:#FEBBBA"/>
				<stop  offset="1" style="stop-color:#FF928E"/>
			</linearGradient>
			<path style="fill:url(#SVGID_00000000912539474711927030000014684275165673661628_);" d="M1894.126,2783.695
				c-0.501-0.322-45.365-108.413-45.866-108.733c-41.134-250.445-141.495-464.932-171.092-521.371
				c-4.98-9.493-14.428-15.755-25.11-16.667l-83.748-7.151l-138.951,187.887l179.222-60.106
				c-38.453,106.204,133.429,311.366,191.641,385.296c5.907,7.503,4.265,18.415-3.593,23.843l-34.224,23.64
				c36.518,56.37,83.609,97.451,140.897,123.79L1894.126,2783.695z"/>
			
				<linearGradient id="SVGID_00000152964132687108380230000007178016696708950930_" gradientUnits="userSpaceOnUse" x1="-9783.959" y1="27448.1523" x2="-9790.6475" y2="28050.0977" gradientTransform="matrix(-0.7895 -0.6137 -0.6137 0.7895 -10385.9697 3191.1018)">
				<stop  offset="0" style="stop-color:#09005D"/>
				<stop  offset="1" style="stop-color:#1A0F91"/>
			</linearGradient>
			<path style="fill:url(#SVGID_00000152964132687108380230000007178016696708950930_);" d="M1781.966,2677.8
				c0,0-19.157,2.09-28.543,16.828c-4.49,7.051-3.145,16.366,2.524,22.509c25.192,27.295,108.596,115.848,150.839,138.545
				c3.463,1.861,7.663-0.752,7.609-4.683c-0.149-10.934-3.305-33.359-21.06-68.9l1.257,4.814c1.59,6.094-5.618,10.605-10.362,6.464
				C1857.637,2770.16,1804.004,2720.292,1781.966,2677.8z"/>
			<g>
				
					<linearGradient id="SVGID_00000109739646414580939200000000268149528741009849_" gradientUnits="userSpaceOnUse" x1="13472.6475" y1="1878.6298" x2="13084.9111" y2="2303.5454" gradientTransform="matrix(1 0 0 1 -11831.959 0)">
					<stop  offset="0" style="stop-color:#4F52FF"/>
					<stop  offset="1" style="stop-color:#4042E2"/>
				</linearGradient>
				<path style="fill:url(#SVGID_00000109739646414580939200000000268149528741009849_);" d="M1176.292,2090.203
					c0,0-75.761,112.686-81.978,164.088c-6.216,51.402,20.949,69.178,100.246,75.733c235.974,19.507,352.299-51.215,352.299-51.215
					c16.142-102.923,27.629-129.107,162.445-185.068c0,0-170.52,13.538-204.838,0.22
					C1470.149,2080.644,1176.292,2090.203,1176.292,2090.203z"/>
			</g>
			<g>
				
					<linearGradient id="SVGID_00000042726500855535166410000007656267307132997248_" gradientUnits="userSpaceOnUse" x1="-14291.5078" y1="-1789.6956" x2="-14175.5811" y2="-1498.8965" gradientTransform="matrix(-0.9446 -0.3283 -0.3283 0.9446 -12528.123 -1699.1722)">
					<stop  offset="0" style="stop-color:#09005D"/>
					<stop  offset="1" style="stop-color:#1A0F91"/>
				</linearGradient>
				<path style="fill:url(#SVGID_00000042726500855535166410000007656267307132997248_);" d="M1478.403,1458.867
					c0,0-52.767-62.432-108.866,14.167c-10.16,13.873-49.185,2.428-63.491,31.466c-7.387,14.993-23.342,23.51-39.778,20.479
					c-40.936-7.551-107.846-8.186-140.882,55.963c-25.217,48.964-5.748,77.621,19.459,93.958c18.513,12,25.121,36.361,13.926,55.371
					c-10.738,18.234-12.757,42.926,14.969,72.643c62.134,66.593,185.13-42.261,185.13-42.261l97.657-230.767L1478.403,1458.867z"/>
				
					<linearGradient id="SVGID_00000098933191764220221180000002748293638278622872_" gradientUnits="userSpaceOnUse" x1="1376.4104" y1="1842.3014" x2="1048.6847" y2="2404.1177">
					<stop  offset="0" style="stop-color:#FE7062"/>
					<stop  offset="1" style="stop-color:#FF928E"/>
				</linearGradient>
				<path style="fill:url(#SVGID_00000098933191764220221180000002748293638278622872_);" d="M1381.181,2075.285
					c0,0,88.224-84.008,131.653-139.65c23.475-30.078,30.847-69.673,19.991-106.25c-19.828-66.799-55.064-135.984-58.277-146.752
					c-4.926-16.505-103.848-15.818-103.848-15.818s-194.661,126.337-271.144,340.342l85.895,26.741
					c0,0,50.826-85.27,101.045-139.483c0,0-86.897,114.794-89.957,161.788L1381.181,2075.285z"/>
				
					<linearGradient id="SVGID_00000090989281368157469070000009970427004138629041_" gradientUnits="userSpaceOnUse" x1="-12523.7725" y1="2061.3911" x2="-12054.1553" y2="2061.3911" gradientTransform="matrix(-1 0 0 1 -11267.1963 0)">
					<stop  offset="0" style="stop-color:#FEBBBA"/>
					<stop  offset="1" style="stop-color:#FF928E"/>
				</linearGradient>
				<path style="fill:url(#SVGID_00000090989281368157469070000009970427004138629041_);" d="M1549.277,2108.437l-66.292-72.126
					l-76.56,20.615c0,0-89.258,13.829-140.342,0c-51.085-13.828-51.085-13.828-51.085-13.828l-115.442-35.94l-18.13,51.24
					c-4.604,13.01,0.022,27.452,11.271,35.446c9.988,7.097,21.695,14.896,29.156,18.161c15.203,6.65,350.208,2.103,350.208,2.103
					L1549.277,2108.437z"/>
				
					<linearGradient id="SVGID_00000141433020799751537810000003882769695933345429_" gradientUnits="userSpaceOnUse" x1="-14468.3271" y1="696.36" x2="-14445.3711" y2="528.4138" gradientTransform="matrix(-0.9974 -0.0717 -0.0717 0.9974 -12933.0674 105.0094)">
					<stop  offset="0" style="stop-color:#FEBBBA"/>
					<stop  offset="1" style="stop-color:#FF928E"/>
				</linearGradient>
				<path style="fill:url(#SVGID_00000141433020799751537810000003882769695933345429_);" d="M1438.687,1547.876L1372.2,1671.51
					c4.39,26.988,72.363,27.749,82.863,11.634c1.069-1.64,1.68-3.537,2.086-5.452l39.772-82.609
					c1.708-8.055-20.376-35.198-27.644-39.067l-26.427-14.067C1432.675,1536.533,1475.136,1536.107,1438.687,1547.876z"/>
				<g>
					
						<linearGradient id="SVGID_00000000206561224341713420000008454552146195161766_" gradientUnits="userSpaceOnUse" x1="-11559.9434" y1="-6726.8101" x2="-11343.791" y2="-7111.4878" gradientTransform="matrix(-0.5458 -0.8379 -0.8379 0.5458 -10514.082 -4320.769)">
						<stop  offset="0" style="stop-color:#FEBBBA"/>
						<stop  offset="1" style="stop-color:#FF928E"/>
					</linearGradient>
					<path style="fill:url(#SVGID_00000000206561224341713420000008454552146195161766_);" d="M1573.244,1518.86
						c0,0,7.505,41.77-25.325,94.879c-32.83,53.108-65.523,50.711-82.133,31.771c-16.609-18.94-36.505-50.484-27.452-103.454
						C1447.386,1489.086,1561.903,1465.594,1573.244,1518.86z"/>
					
						<linearGradient id="SVGID_00000162312121290170932180000016210112234155319740_" gradientUnits="userSpaceOnUse" x1="-11513.4619" y1="-7061.8047" x2="-11405.3867" y2="-6790.7002" gradientTransform="matrix(-0.5458 -0.8379 -0.8379 0.5458 -10514.082 -4320.769)">
						<stop  offset="0" style="stop-color:#09005D"/>
						<stop  offset="1" style="stop-color:#1A0F91"/>
					</linearGradient>
					<path style="fill:url(#SVGID_00000162312121290170932180000016210112234155319740_);" d="M1478.077,1547.811
						c0,0,53.16-69.826,93.974-8.956l-0.688,21.027c0,0,53.074-2.481,47.318-51.399c-5.755-48.919-49.085-82.336-109.155-65.623
						c-60.07,16.713-95.17,35.747-101.953,77.453c-6.784,41.706,27.271,34.892,27.271,34.892s13.008-28.777,28.716-30.742
						c15.707-1.966,10.032,20.797,10.032,20.797L1478.077,1547.811z"/>
					
						<linearGradient id="SVGID_00000157291913803438772670000011730187416803018906_" gradientUnits="userSpaceOnUse" x1="-11513.9316" y1="-6700.96" x2="-11297.7813" y2="-7085.6353" gradientTransform="matrix(-0.5458 -0.8379 -0.8379 0.5458 -10514.082 -4320.769)">
						<stop  offset="0" style="stop-color:#FEBBBA"/>
						<stop  offset="1" style="stop-color:#FF928E"/>
					</linearGradient>
					<path style="fill:url(#SVGID_00000157291913803438772670000011730187416803018906_);" d="M1465.878,1545.95
						c0,0,27.538-35.734,2.471-43.151c-25.067-7.417-24.13,35.014-22.497,50.8L1465.878,1545.95z"/>
				</g>
			</g>
			<g>
				
					<linearGradient id="SVGID_00000114760795941828888620000011325917786316058003_" gradientUnits="userSpaceOnUse" x1="-12592.5898" y1="1490.7151" x2="-12838.2607" y2="1558.0471" gradientTransform="matrix(-0.9988 -0.0494 -0.0494 0.9988 -11225.7275 -55.0328)">
					<stop  offset="0" style="stop-color:#09005D"/>
					<stop  offset="1" style="stop-color:#1A0F91"/>
				</linearGradient>
				<path style="fill:url(#SVGID_00000114760795941828888620000011325917786316058003_);" d="M1329.842,2136.983
					c0.233,0.011,0.466,0.017,0.701,0.016l304.914-0.333c7.537-0.006,13.641-6.123,13.634-13.661
					c-0.007-7.54-6.147-13.769-13.664-13.633l-304.915,0.333c-7.537,0.006-13.641,6.124-13.633,13.661
					C1316.888,2130.668,1322.631,2136.626,1329.842,2136.983z"/>
				
					<linearGradient id="SVGID_00000039092738329258140350000000766904801923002558_" gradientUnits="userSpaceOnUse" x1="-1631.8136" y1="2016.423" x2="577.7388" y2="1830.5233" gradientTransform="matrix(-1 0 0 1 283.9132 0)">
					<stop  offset="0" style="stop-color:#09005D"/>
					<stop  offset="1" style="stop-color:#1A0F91"/>
				</linearGradient>
				<path style="fill:url(#SVGID_00000039092738329258140350000000766904801923002558_);" d="M1909.562,1860.139h-253.935
					c-18.733,0-35.783,10.81-43.774,27.754L1494.46,2136.82h315.573c12.072,0,22.918-7.376,27.355-18.603l91.034-230.345
					C1933.682,1874.562,1923.874,1860.139,1909.562,1860.139z"/>
				<path style="fill:#91B3FA;" d="M1730.662,1987.772c-5.503,17.096-1.438,33.7,9.08,37.085
					c10.518,3.385,23.505-7.73,29.007-24.827c5.503-17.096,1.438-33.7-9.08-37.085
					C1749.153,1959.56,1736.166,1970.675,1730.662,1987.772z"/>
			</g>
		</g>
	</g>
</g>
</svg>
